<svg xmlns="http://www.w3.org/2000/svg" xmlns:xlink="http://www.w3.org/1999/xlink" version="1.1" width="256" height="256" viewBox="0 0 256 256" xml:space="preserve">

<defs>
</defs>
<g style="stroke: none; stroke-width: 0; stroke-dasharray: none; stroke-linecap: butt; stroke-linejoin: miter; stroke-miterlimit: 10; fill: none; fill-rule: nonzero; opacity: 1;" transform="translate(1.4065934065934016 1.4065934065934016) scale(2.81 2.81)" >
	<path d="M 42.579 35.782 l 0.041 2.32 c 0 2.526 1.959 4.69 4.655 5.145 l -12.503 9.521 L 22.27 43.247 c 2.696 -0.454 4.655 -2.619 4.655 -5.145 l 0.04 -2.32 H 42.579 z" style="stroke: none; stroke-width: 1; stroke-dasharray: none; stroke-linecap: butt; stroke-linejoin: miter; stroke-miterlimit: 10; fill: rgb(239,168,151); fill-rule: nonzero; opacity: 1;" transform=" matrix(1 0 0 1 0 0) " stroke-linecap="round" />
	<path d="M 47.033 20.918 l -0.487 7.574 c -0.481 5.752 -4.269 10.696 -9.698 12.658 l 0 0 c -0.678 0.245 -1.389 0.368 -2.099 0.368 h 0 c -0.71 0 -1.421 -0.123 -2.099 -0.368 l 0 0 c -5.428 -1.961 -9.216 -6.906 -9.698 -12.658 l -0.458 -7.574 v -9.189 h 24.78 L 47.033 20.918 z" style="stroke: none; stroke-width: 1; stroke-dasharray: none; stroke-linecap: butt; stroke-linejoin: miter; stroke-miterlimit: 10; fill: rgb(245,184,162); fill-rule: nonzero; opacity: 1;" transform=" matrix(1 0 0 1 0 0) " stroke-linecap="round" />
	<path d="M 47.275 43.247 l 6.966 1.173 c 3.669 0.618 6.335 3.564 6.335 7.002 v 26.867 c 0 2.533 -2.054 4.587 -4.587 4.587 h -2.237 H 13.556 c -2.533 0 -4.587 -2.054 -4.587 -4.587 V 51.421 c 0 -3.437 2.666 -6.384 6.335 -7.002 l 6.966 -1.173 l 2.842 2.164 c 5.708 4.346 13.615 4.346 19.322 0 L 47.275 43.247 z" style="stroke: none; stroke-width: 1; stroke-dasharray: none; stroke-linecap: butt; stroke-linejoin: miter; stroke-miterlimit: 10; fill: rgb(47,107,178); fill-rule: nonzero; opacity: 1;" transform=" matrix(1 0 0 1 0 0) " stroke-linecap="round" />
	<path d="M 51.862 82.875 c -12.624 2.111 -24.016 2.111 -34.178 0 l -1.992 -21.887 c -0.097 -1.064 0.741 -1.981 1.809 -1.981 h 34.545 c 1.068 0 1.906 0.917 1.809 1.981 L 51.862 82.875 z" style="stroke: none; stroke-width: 1; stroke-dasharray: none; stroke-linecap: butt; stroke-linejoin: miter; stroke-miterlimit: 10; fill: rgb(223,211,223); fill-rule: nonzero; opacity: 1;" transform=" matrix(1 0 0 1 0 0) " stroke-linecap="round" />
	<path d="M 83.926 90 H 6.074 c -1.003 0 -1.816 -0.813 -1.816 -1.816 v -3.492 c 0 -1.003 0.813 -1.816 1.816 -1.816 h 77.852 c 1.003 0 1.816 0.813 1.816 1.816 v 3.492 C 85.742 89.187 84.929 90 83.926 90 z" style="stroke: none; stroke-width: 1; stroke-dasharray: none; stroke-linecap: butt; stroke-linejoin: miter; stroke-miterlimit: 10; fill: rgb(252,185,132); fill-rule: nonzero; opacity: 1;" transform=" matrix(1 0 0 1 0 0) " stroke-linecap="round" />
	<path d="M 34.85 69.2 c -0.26 0 -0.52 -0.11 -0.7 -0.301 c -0.1 -0.09 -0.17 -0.199 -0.22 -0.319 c -0.05 -0.12 -0.08 -0.25 -0.08 -0.38 c 0 -0.131 0.03 -0.261 0.08 -0.381 c 0.05 -0.13 0.12 -0.239 0.22 -0.329 c 0.37 -0.37 1.04 -0.37 1.41 0 c 0.09 0.09 0.17 0.199 0.22 0.329 c 0.05 0.12 0.07 0.25 0.07 0.381 c 0 0.13 -0.02 0.26 -0.07 0.38 s -0.12 0.229 -0.22 0.319 c -0.09 0.101 -0.2 0.17 -0.32 0.221 C 35.12 69.17 34.99 69.2 34.85 69.2 z" style="stroke: none; stroke-width: 1; stroke-dasharray: none; stroke-linecap: butt; stroke-linejoin: miter; stroke-miterlimit: 10; fill: rgb(86,84,84); fill-rule: nonzero; opacity: 1;" transform=" matrix(1 0 0 1 0 0) " stroke-linecap="round" />
	<path d="M 30.148 26.394 c -0.552 0 -1 -0.448 -1 -1 v -1.83 c 0 -0.552 0.448 -1 1 -1 s 1 0.448 1 1 v 1.83 C 31.148 25.946 30.701 26.394 30.148 26.394 z" style="stroke: none; stroke-width: 1; stroke-dasharray: none; stroke-linecap: butt; stroke-linejoin: miter; stroke-miterlimit: 10; fill: rgb(86,84,84); fill-rule: nonzero; opacity: 1;" transform=" matrix(1 0 0 1 0 0) " stroke-linecap="round" />
	<path d="M 39.397 26.394 c -0.552 0 -1 -0.448 -1 -1 v -1.83 c 0 -0.552 0.448 -1 1 -1 s 1 0.448 1 1 v 1.83 C 40.397 25.946 39.949 26.394 39.397 26.394 z" style="stroke: none; stroke-width: 1; stroke-dasharray: none; stroke-linecap: butt; stroke-linejoin: miter; stroke-miterlimit: 10; fill: rgb(86,84,84); fill-rule: nonzero; opacity: 1;" transform=" matrix(1 0 0 1 0 0) " stroke-linecap="round" />
	<path d="M 34.829 35.982 c -1.507 0 -3.033 -0.546 -4.536 -1.64 c -0.447 -0.325 -0.545 -0.951 -0.22 -1.397 c 0.325 -0.447 0.95 -0.545 1.397 -0.22 c 2.316 1.685 4.408 1.691 6.584 0.016 c 0.436 -0.337 1.066 -0.255 1.402 0.183 c 0.337 0.438 0.255 1.065 -0.183 1.402 C 37.839 35.43 36.343 35.982 34.829 35.982 z" style="stroke: none; stroke-width: 1; stroke-dasharray: none; stroke-linecap: butt; stroke-linejoin: miter; stroke-miterlimit: 10; fill: rgb(86,84,84); fill-rule: nonzero; opacity: 1;" transform=" matrix(1 0 0 1 0 0) " stroke-linecap="round" />
	<path d="M 47.033 20.918 c 5.419 -8.065 2.96 -13.562 -5.765 -17.015 c 0.19 -0.797 1.289 -1.594 3.023 -2.391 c -7.175 -2.696 -15.709 -2.079 -19.613 4.225 c -5.348 1.803 -6.986 7.789 -2.183 15.18 c 0.536 -9.047 6.409 -8.312 13.499 -5.344 c 3.585 1.372 6.698 1.231 9.632 0.773 C 47.231 16.048 47.152 18.901 47.033 20.918 z" style="stroke: none; stroke-width: 1; stroke-dasharray: none; stroke-linecap: butt; stroke-linejoin: miter; stroke-miterlimit: 10; fill: rgb(154,71,56); fill-rule: nonzero; opacity: 1;" transform=" matrix(1 0 0 1 0 0) " stroke-linecap="round" />
	<path d="M 73.284 82.905 h -3.982 c -1.588 0 -2.876 -1.287 -2.876 -2.876 v -8.457 h 9.734 v 8.457 C 76.159 81.618 74.872 82.905 73.284 82.905 z" style="stroke: none; stroke-width: 1; stroke-dasharray: none; stroke-linecap: butt; stroke-linejoin: miter; stroke-miterlimit: 10; fill: rgb(223,211,223); fill-rule: nonzero; opacity: 1;" transform=" matrix(1 0 0 1 0 0) " stroke-linecap="round" />
	<path d="M 79.005 80.839 h -3.846 c -0.553 0 -1 -0.447 -1 -1 v -5.571 c 0 -0.553 0.447 -1 1 -1 h 3.846 c 0.553 0 1 0.447 1 1 v 5.571 C 80.005 80.392 79.558 80.839 79.005 80.839 z M 76.159 78.839 h 1.846 v -3.571 h -1.846 V 78.839 z" style="stroke: none; stroke-width: 1; stroke-dasharray: none; stroke-linecap: butt; stroke-linejoin: miter; stroke-miterlimit: 10; fill: rgb(223,211,223); fill-rule: nonzero; opacity: 1;" transform=" matrix(1 0 0 1 0 0) " stroke-linecap="round" />
	<path d="M 69.182 69.229 c -0.199 0 -0.399 -0.06 -0.574 -0.183 c -0.452 -0.317 -0.561 -0.941 -0.242 -1.393 c 0.472 -0.67 0.313 -1.104 -0.088 -2.021 c -0.436 -0.994 -1.032 -2.355 0.077 -3.996 c 0.308 -0.458 0.932 -0.578 1.388 -0.269 c 0.458 0.309 0.578 0.931 0.269 1.388 c -0.472 0.699 -0.311 1.141 0.099 2.074 c 0.435 0.994 1.031 2.355 -0.109 3.975 C 69.806 69.082 69.496 69.229 69.182 69.229 z" style="stroke: none; stroke-width: 1; stroke-dasharray: none; stroke-linecap: butt; stroke-linejoin: miter; stroke-miterlimit: 10; fill: rgb(223,211,223); fill-rule: nonzero; opacity: 1;" transform=" matrix(1 0 0 1 0 0) " stroke-linecap="round" />
	<path d="M 73.387 69.229 c -0.199 0 -0.399 -0.06 -0.574 -0.183 c -0.452 -0.317 -0.561 -0.941 -0.242 -1.393 c 0.472 -0.671 0.313 -1.104 -0.088 -2.021 c -0.436 -0.994 -1.031 -2.355 0.076 -3.996 c 0.31 -0.458 0.93 -0.577 1.389 -0.27 c 0.458 0.31 0.578 0.931 0.27 1.389 c -0.472 0.698 -0.312 1.141 0.098 2.074 c 0.436 0.994 1.031 2.355 -0.109 3.975 C 74.011 69.082 73.701 69.229 73.387 69.229 z" style="stroke: none; stroke-width: 1; stroke-dasharray: none; stroke-linecap: butt; stroke-linejoin: miter; stroke-miterlimit: 10; fill: rgb(223,211,223); fill-rule: nonzero; opacity: 1;" transform=" matrix(1 0 0 1 0 0) " stroke-linecap="round" />
</g>
</svg>